<svg width="412" height="913" viewBox="0 0 412 913" fill="none" xmlns="http://www.w3.org/2000/svg">
<path d="M0 0H412L0 228.5V0Z" fill="#F5F5F5"/>
<path d="M412 228.5L0 228.5L412 0V228.5Z" fill="#57D131"/>
<path d="M412 456.5H0L412 228V456.5Z" fill="#F5F5F5"/>
<path d="M0 228H412L0 456.5L0 228Z" fill="#57D131"/>
<path d="M0 456H412L0 684.5V456Z" fill="#F5F5F5"/>
<path d="M412 684.5H0L412 456V684.5Z" fill="#57D131"/>
<path d="M0 0H412L0 228.5V0Z" fill="#F5F5F5"/>
<path d="M412 228.5L0 228.5L412 0V228.5Z" fill="#57D131"/>
<path d="M412 912.5H0L412 684V912.5Z" fill="#F5F5F5"/>
<path d="M0 684H412L0 912.5L0 684Z" fill="#57D131"/>
<path d="M0 456H412L0 684.5V456Z" fill="#F5F5F5"/>
<path d="M412 684.5H0L412 456V684.5Z" fill="#57D131"/>
</svg>
